<svg xmlns="http://www.w3.org/2000/svg" viewBox="0 0 64 64" role="img" aria-label="PocketTune">
  <title>PocketTune</title>
  <rect width="64" height="64" rx="14" fill="#241f1b"/>
  <g stroke="#241f1b" stroke-width="1.4" stroke-linejoin="round">
    <path d="M46.53,52.46 L37.47,56.54 Q32.00,59.00 26.53,56.54 L17.47,52.46 Q12.00,50.00 17.47,47.54 L26.53,43.46 Q32.00,41.00 37.47,43.46 L46.53,47.54 Q52.00,50.00 46.53,52.46 Z" fill="#d0713a"/>
    <path d="M46.53,40.46 L37.47,44.54 Q32.00,47.00 26.53,44.54 L17.47,40.46 Q12.00,38.00 17.47,35.54 L26.53,31.46 Q32.00,29.00 37.47,31.46 L46.53,35.54 Q52.00,38.00 46.53,40.46 Z" fill="#fdfcfa" opacity="0.6"/>
    <path d="M46.53,28.46 L37.47,32.54 Q32.00,35.00 26.53,32.54 L17.47,28.46 Q12.00,26.00 17.47,23.54 L26.53,19.46 Q32.00,17.00 37.47,19.46 L46.53,23.54 Q52.00,26.00 46.53,28.46 Z" fill="#fdfcfa" opacity="0.8"/>
    <path d="M46.53,16.46 L37.47,20.54 Q32.00,23.00 26.53,20.54 L17.47,16.46 Q12.00,14.00 17.47,11.54 L26.53,7.46 Q32.00,5.00 37.47,7.46 L46.53,11.54 Q52.00,14.00 46.53,16.46 Z" fill="#fdfcfa"/>
  </g>
</svg>
